<?xml version="1.0" standalone="no"?>
<!DOCTYPE svg PUBLIC "-//W3C//DTD SVG 20010904//EN"
 "http://www.w3.org/TR/2001/REC-SVG-20010904/DTD/svg10.dtd">
<svg version="1.0" xmlns="http://www.w3.org/2000/svg"
 width="489.000000pt" height="489.000000pt" viewBox="0 0 489.000000 489.000000"
 preserveAspectRatio="xMidYMid meet">
<metadata>
Created by potrace 1.14, written by Peter Selinger 2001-2017
</metadata>
<g transform="translate(0.000000,489.000000) scale(0.100000,-0.100000)"
fill="#000000" stroke="none">
<path d="M2358 4845 c-2 -2 -40 -6 -84 -9 -93 -8 -97 -8 -259 -41 -354 -71
-713 -242 -1004 -478 -84 -68 -274 -255 -336 -331 -299 -366 -494 -837 -540
-1306 -3 -36 -8 -83 -10 -105 -6 -52 -6 -277 -1 -334 22 -230 41 -336 91 -510
137 -477 431 -924 798 -1216 21 -16 48 -38 60 -49 50 -42 249 -168 339 -215
212 -111 410 -179 697 -238 47 -10 715 -13 756 -3 22 5 59 11 82 15 23 3 108
24 190 46 203 55 249 64 407 77 209 18 417 0 661 -57 72 -17 140 -33 153 -36
l22 -5 0 797 c0 879 0 880 62 994 59 113 154 199 268 246 l55 23 -789 0 c-434
0 -787 -2 -785 -4 2 -2 29 -14 59 -27 133 -55 246 -185 292 -333 21 -70 22
-83 22 -734 l1 -662 -75 -29 c-164 -64 -366 -127 -465 -147 -191 -38 -349 -48
-501 -32 -270 28 -566 153 -819 347 -143 109 -331 324 -433 496 -149 251 -260
586 -303 910 -24 187 -33 322 -33 510 0 144 11 364 19 388 2 7 7 37 10 67 16
163 75 419 136 598 243 707 680 1164 1210 1266 92 18 293 18 391 0 344 -64
628 -264 855 -604 204 -303 307 -703 268 -1035 -11 -88 -49 -233 -78 -294
l-26 -53 42 5 c180 24 376 153 482 317 114 176 160 425 117 631 -33 161 -110
333 -201 449 -152 194 -495 430 -786 539 -33 13 -69 27 -80 31 -117 49 -384
107 -577 125 -66 7 -355 14 -360 10z"/>
</g>
</svg>
